<svg width="22" height="23" viewBox="0 0 22 23" fill="none" xmlns="http://www.w3.org/2000/svg">
<path d="M18.9043 3.56442C17.9368 2.53422 16.7844 1.7174 15.5143 1.1616C14.2443 0.605809 12.8819 0.322165 11.5068 0.327215C5.74497 0.327215 1.04899 5.27758 1.04899 11.3515C1.04899 13.2983 1.53442 15.1894 2.44196 16.8581L0.964569 22.5761L6.50477 21.0409C8.03492 21.9197 9.75502 22.3869 11.5068 22.3869C17.2686 22.3869 21.9646 17.4366 21.9646 11.3626C21.9646 8.41467 20.8776 5.64469 18.9043 3.56442ZM11.5068 20.518C9.94497 20.518 8.41482 20.0731 7.07462 19.2387L6.75804 19.0385L3.46557 19.9507L4.34145 16.5689L4.1304 16.224C3.26269 14.7633 2.80195 13.075 2.80075 11.3515C2.80075 6.30103 6.70527 2.18499 11.4962 2.18499C13.8178 2.18499 16.0023 3.14169 17.6379 4.8771C18.4478 5.72697 19.0897 6.73784 19.5262 7.85114C19.9628 8.96443 20.1854 10.158 20.1812 11.3626C20.2023 16.4131 16.2977 20.518 11.5068 20.518ZM16.2766 13.6654C16.0128 13.5319 14.7254 12.8644 14.4932 12.7643C14.2505 12.6753 14.0817 12.6308 13.9023 12.8978C13.7229 13.1759 13.2269 13.7989 13.0791 13.9769C12.9314 14.166 12.7731 14.1882 12.5093 14.0436C12.2455 13.9101 11.4013 13.6098 10.4093 12.6753C9.62839 11.9411 9.1113 11.04 8.95301 10.7619C8.80527 10.4838 8.9319 10.3392 9.06909 10.1946C9.18517 10.0722 9.33291 9.87197 9.45954 9.71623C9.58618 9.56049 9.63894 9.43812 9.72336 9.26013C9.80778 9.07101 9.76557 8.91527 9.70226 8.78178C9.63894 8.64828 9.1113 7.2911 8.90025 6.73488C8.68919 6.20091 8.46758 6.26766 8.30929 6.25653H7.80276C7.62336 6.25653 7.34899 6.32328 7.10628 6.60139C6.87412 6.8795 6.19874 7.54697 6.19874 8.90415C6.19874 10.2613 7.13794 11.574 7.26457 11.752C7.3912 11.9411 9.1113 14.7222 11.7284 15.9125C12.351 16.2018 12.8364 16.3686 13.2163 16.491C13.8389 16.7024 14.4088 16.669 14.8626 16.6022C15.3691 16.5244 16.4138 15.9348 16.6249 15.2896C16.8465 14.6443 16.8465 14.0993 16.7726 13.9769C16.6987 13.8545 16.5404 13.7989 16.2766 13.6654Z" fill="black"/>
</svg>
