<svg width="22" height="22" viewBox="0 0 22 22" fill="none" xmlns="http://www.w3.org/2000/svg">
<path fill-rule="evenodd" clip-rule="evenodd" d="M6.84294 0.336788C7.91819 0.284606 8.26102 0.27301 11 0.27301C13.739 0.27301 14.0819 0.285572 15.1562 0.336788C16.2305 0.388003 16.9639 0.568705 17.6055 0.830579C18.2774 1.09825 18.887 1.51667 19.3912 2.05781C19.9045 2.58832 20.3005 3.22996 20.5535 3.93924C20.8029 4.61567 20.9734 5.38873 21.0229 6.51933C21.0724 7.65476 21.0834 8.01617 21.0834 10.9026C21.0834 13.79 21.0714 14.1514 21.0229 15.2849C20.9743 16.4155 20.8029 17.1885 20.5535 17.8649C20.3005 18.5743 19.9039 19.217 19.3912 19.7483C18.887 20.2894 18.2774 20.7069 17.6055 20.9736C16.9639 21.2364 16.2305 21.4162 15.158 21.4684C14.0819 21.5205 13.739 21.5321 11 21.5321C8.26102 21.5321 7.91819 21.5196 6.84294 21.4684C5.77044 21.4172 5.0371 21.2364 4.39544 20.9736C3.72253 20.7069 3.11286 20.2887 2.60885 19.7483C2.09587 19.2175 1.69889 18.5751 1.4456 17.8659C1.19719 17.1895 1.02669 16.4164 0.977187 15.2858C0.927687 14.1504 0.916687 13.789 0.916687 10.9026C0.916687 8.0152 0.928604 7.65379 0.977187 6.52126C1.02577 5.38873 1.19719 4.61567 1.4456 3.93924C1.69927 3.23004 2.09655 2.58766 2.60977 2.05684C3.11306 1.51619 3.72212 1.09771 4.39452 0.830579C5.03619 0.568705 5.76952 0.388969 6.84202 0.336788H6.84294ZM15.0746 2.25011C14.0113 2.19889 13.6923 2.18826 11 2.18826C8.30777 2.18826 7.98877 2.19889 6.92544 2.25011C5.94185 2.29746 5.40835 2.47043 5.05269 2.61635C4.58244 2.80961 4.24602 3.03863 3.8931 3.41067C3.55856 3.75376 3.3011 4.17143 3.1396 4.63307C3.00119 5.008 2.8371 5.5704 2.79219 6.60727C2.7436 7.7282 2.73352 8.06448 2.73352 10.9026C2.73352 13.7407 2.7436 14.077 2.79219 15.1979C2.8371 16.2348 3.00119 16.7972 3.1396 17.1721C3.30094 17.633 3.55852 18.0514 3.8931 18.3945C4.21852 18.7472 4.61544 19.0187 5.05269 19.1888C5.40835 19.3347 5.94185 19.5077 6.92544 19.555C7.98877 19.6063 8.30685 19.6169 11 19.6169C13.6932 19.6169 14.0113 19.6063 15.0746 19.555C16.0582 19.5077 16.5917 19.3347 16.9474 19.1888C17.4176 18.9955 17.754 18.7665 18.1069 18.3945C18.4415 18.0514 18.6991 17.633 18.8604 17.1721C18.9989 16.7972 19.1629 16.2348 19.2079 15.1979C19.2564 14.077 19.2665 13.7407 19.2665 10.9026C19.2665 8.06448 19.2564 7.7282 19.2079 6.60727C19.1629 5.5704 18.9989 5.008 18.8604 4.63307C18.6771 4.13734 18.4599 3.7827 18.1069 3.41067C17.7815 3.05803 17.3852 2.78662 16.9474 2.61635C16.5917 2.47043 16.0582 2.29746 15.0746 2.25011V2.25011ZM9.7121 14.1794C10.4314 14.495 11.2323 14.5376 11.978 14.2999C12.7238 14.0622 13.3681 13.5589 13.801 12.876C14.2339 12.1932 14.4284 11.3731 14.3514 10.5558C14.2744 9.73848 13.9306 8.97473 13.3788 8.39496C13.027 8.02436 12.6016 7.74058 12.1333 7.56407C11.665 7.38755 11.1654 7.32269 10.6705 7.37416C10.1755 7.42562 9.69758 7.59212 9.27101 7.86168C8.84444 8.13124 8.47987 8.49715 8.20355 8.93306C7.92723 9.36898 7.74603 9.86406 7.67299 10.3827C7.59996 10.9013 7.63691 11.4305 7.78118 11.9322C7.92545 12.4339 8.17346 12.8957 8.50735 13.2843C8.84123 13.6729 9.25269 13.9786 9.7121 14.1794ZM7.33519 7.03921C7.81646 6.53187 8.38781 6.12942 9.01663 5.85485C9.64544 5.58028 10.3194 5.43895 11 5.43895C11.6806 5.43895 12.3546 5.58028 12.9834 5.85485C13.6122 6.12942 14.1836 6.53187 14.6649 7.03921C15.1461 7.54656 15.5279 8.14886 15.7884 8.81174C16.0488 9.47462 16.1829 10.1851 16.1829 10.9026C16.1829 11.6201 16.0488 12.3305 15.7884 12.9934C15.5279 13.6563 15.1461 14.2586 14.6649 14.7659C13.6929 15.7906 12.3746 16.3662 11 16.3662C9.62544 16.3662 8.30716 15.7906 7.33519 14.7659C6.36321 13.7413 5.81716 12.3516 5.81716 10.9026C5.81716 9.45353 6.36321 8.06384 7.33519 7.03921V7.03921ZM17.3324 6.25262C17.4516 6.13403 17.5471 5.99141 17.6131 5.83321C17.6792 5.67502 17.7144 5.50447 17.7168 5.33165C17.7192 5.15883 17.6887 4.98727 17.627 4.82711C17.5654 4.66696 17.4739 4.52146 17.358 4.39925C17.2421 4.27704 17.104 4.18059 16.9521 4.11562C16.8002 4.05064 16.6374 4.01846 16.4735 4.02098C16.3096 4.0235 16.1478 4.06067 15.9977 4.13028C15.8476 4.1999 15.7124 4.30055 15.5999 4.42627C15.3811 4.67078 15.2613 4.99555 15.2659 5.33165C15.2706 5.66775 15.3993 5.9887 15.6247 6.22638C15.8502 6.46406 16.1547 6.59976 16.4735 6.60466C16.7923 6.60956 17.1004 6.48328 17.3324 6.25262V6.25262Z" fill="black"/>
</svg>
